# xmcd
#
# Track frame offsets:
# 150
# 10215
# 20930
# 31538
# 43572
# 55908
# 69333
# 80278
# 93591
# 105946
# 118192
# 132681
# 144809
# 157538
# 169758
# 180965
# 192756
# 205052
#
# Disc length: 2877 seconds
#
# Revision: 2
# Processed by: cddbd v1.5.1PL0 Copyright (c) Steve Scherf et al.
# Submitted via: Axialis_AX_CDPlayer 2.6
#
DISCID=db0b3b12
DTITLE=Chuck Berry - Blues Berry
DYEAR=1900
DGENRE=
TTITLE0=Memphis Tennessee
TTITLE1=Almost Grown
TTITLE2=Maybellene
TTITLE3=Johnny B. Goode
TTITLE4=No Particular Place To Go
TTITLE5=No Money Down
TTITLE6=Thirty Days
TTITLE7=Too Much Monkey Business
TTITLE8=You Can't Catch Me
TTITLE9=School Day (Ring Ring Gose The Bell)
TTITLE10=Sweet Little 16
TTITLE11=Around and Around
TTITLE12=Carol
TTITLE13=Little Queenie
TTITLE14=Back in the USA
TTITLE15=Nadine (Is it'you)
TTITLE16=You never can Tell
TTITLE17=Promised land
EXTD=
EXTT0=
EXTT1=
EXTT2=
EXTT3=
EXTT4=
EXTT5=
EXTT6=
EXTT7=
EXTT8=
EXTT9=
EXTT10=
EXTT11=
EXTT12=
EXTT13=
EXTT14=
EXTT15=
EXTT16=
EXTT17=
PLAYORDER=
